# xmcd
#
# Track frame offsets:
#	150
#	14191
#	27992
#	40921
#	51675
#	75180
#	90252
#	105489
#	121405
#	138426
#	151286
#	161799
#	183803
#	199076
#	212359
#	224501
#	237124
#	256561
#
# Disc length: 3655 seconds
#
# Revision: 4
# Processed by: cddbd v1.4PL0 Copyright (c) Steve Scherf et al.
# Submitted via: dBpowerAMP V4.0
#
DISCID=ea0e4512
DTITLE=Tito Puente - The Complete RCA Recordings - Volume 1 - Disc 2
DYEAR=1956
DGENRE=Latin
TTITLE0=Cuban Nightmare
TTITLE1=Por Tu Amor
TTITLE2=Mambozooka
TTITLE3=Mama Inez
TTITLE4=Elegua Chango
TTITLE5=Cual Es La Idea
TTITLE6=Pa' Los Rumberos
TTITLE7=Guaganco Margarito
TTITLE8=Yambeque
TTITLE9=Havana After Dark
TTITLE10=Flying Down to Rio
TTITLE11=Lotus Land
TTITLE12=Lucky Dog
TTITLE13=Tito In
TTITLE14=Sin Amor
TTITLE15=No Me Obligues
TTITLE16=Cubarama
TTITLE17=Asi Es Como Era
EXTD=
EXTT0=
EXTT1=
EXTT2=
EXTT3=
EXTT4=
EXTT5=
EXTT6=
EXTT7=
EXTT8=
EXTT9=
EXTT10=
EXTT11=
EXTT12=
EXTT13=
EXTT14=
EXTT15=
EXTT16=
EXTT17=
PLAYORDER=
